<?xml version="1.0" encoding="utf-8"?>
<!-- Generator: Adobe Illustrator 26.0.1, SVG Export Plug-In . SVG Version: 6.00 Build 0)  -->
<svg version="1.1" id="圖層_1" xmlns="http://www.w3.org/2000/svg" xmlns:xlink="http://www.w3.org/1999/xlink" x="0px" y="0px"
	 viewBox="0 0 190 40" style="enable-background:new 0 0 190 40;" xml:space="preserve">
<style type="text/css">
	.st0{fill:#FFFFFF;}
</style>
<g>
	<g>
		<path class="st0" d="M62.6,26.1l6.3-21h7.6l0.7,6.8c0.1,0.7,0.1,1.5,0.2,2.2c0,0.8,0.1,1.6,0.1,2.4l5-11.4h7.7l-1,21h-7l0.9-11.2
			c-0.2,0.5-0.4,1.1-0.6,1.6c-0.2,0.6-0.5,1.1-0.8,1.7l-3.6,7.8h-4.3l-1.2-10.9c-0.1,0.5-0.2,1.1-0.3,1.7c-0.1,0.6-0.3,1.1-0.4,1.8
			l-2.1,7.5H62.6z"/>
		<path class="st0" d="M91.7,26.1l3.9-21h14.4l-1,5.7h-6.8l-0.4,2h6.4l-1,5.3h-6.4l-0.4,2.3h7.5l-1,5.7H91.7z"/>
		<path class="st0" d="M110,26.1l3.9-21h7.7l-3.9,21H110z"/>
		<path class="st0" d="M120.6,26.1l6.3-21h7.6l0.7,6.8c0.1,0.7,0.1,1.5,0.2,2.2c0,0.8,0.1,1.6,0.1,2.4l5-11.4h7.7l-1,21h-7l0.9-11.2
			c-0.2,0.5-0.4,1.1-0.6,1.6c-0.2,0.6-0.5,1.1-0.8,1.7l-3.6,7.8h-4.3l-1.2-10.9c-0.1,0.5-0.2,1.1-0.3,1.7c-0.1,0.6-0.3,1.1-0.4,1.8
			l-2.1,7.5H120.6z"/>
		<path class="st0" d="M147.6,26.1l11-21h8.3l2.7,21h-7.5l-0.1-2.8h-5.1l-1.1,2.8H147.6z M159,18.3h2.7l-0.1-2.3c0-0.1,0-0.3,0-0.5
			c0-0.9-0.1-1.7-0.1-2.3c0-0.4,0-0.7,0-0.9c0-0.2,0-0.4,0-0.6c-0.2,0.6-0.3,1.1-0.5,1.6c-0.2,0.5-0.4,1-0.5,1.4L159,18.3z"/>
		<path class="st0" d="M170.8,26.1l3.9-21h7.7l-3.9,21H170.8z"/>
	</g>
</g>
<path class="st0" d="M71.9,36h-4.1c-0.2,0.6-0.6,1.1-1.1,1.5c-0.6,0.4-1.6,0.8-3.1,1.2l-0.3-0.5c1.1-0.3,1.9-0.6,2.6-0.9
	c0.7-0.4,1.1-0.8,1.3-1.4h-3.6v-0.5h3.8c0.1-0.2,0.1-0.4,0.1-0.8l0.5,0c0,0.3,0,0.6-0.1,0.8h4V36z M72.2,34.5h-8.9V34h4.2v-1h-3.3
	v-0.5h3.3v-0.9h-3.7v-0.5h8v0.5H68v0.9h3.3V33H68v1h4.2V34.5z M66.8,30.6l-0.5,0.3c-0.2-0.3-0.6-0.5-1.1-0.8l0.5-0.3
	C66.2,30,66.5,30.3,66.8,30.6z M72.1,38.4l-0.3,0.4c-1.1-0.7-2.3-1.3-3.7-1.8l0.3-0.4C69.6,37.1,70.9,37.7,72.1,38.4z M70.1,30.1
	c-0.3,0.3-0.7,0.6-1.1,0.8l-0.5-0.3c0.4-0.2,0.8-0.5,1.1-0.8L70.1,30.1z"/>
<path class="st0" d="M84.4,38.1l-0.1,0.5h-4c-1.5,0-2.6-0.4-3.3-1.2c-0.4,0.6-0.7,1-1.1,1.4l-0.4-0.4c0.9-0.7,1.5-1.8,1.8-3.2h-1.5
	v-0.5c0.5-0.6,1-1.2,1.5-2.1h-1.8v-0.5h2.4v0.5c-0.3,0.6-0.8,1.3-1.5,2.1h1.4v0.5c-0.1,0.6-0.3,1.2-0.6,1.8c0.3,0.4,0.7,0.6,1.1,0.8
	c0.4,0.2,1.1,0.3,1.9,0.3H84.4z M77.6,31.4l-0.4,0.4c-0.5-0.6-1-1.1-1.4-1.4l0.4-0.4C76.6,30.4,77.1,30.8,77.6,31.4z M81,30.9h-0.6
	v0.4h-0.5v-0.4h-1.7v-0.5h1.7v-0.5h0.5v0.5H81V30.9z M84.1,37c0,0.1,0,0.2-0.1,0.4c-0.1,0.1-0.2,0.2-0.3,0.3c-0.1,0-0.5,0.1-1.1,0.1
	l-0.2-0.5c0.1,0,0.4,0,0.9,0c0.2,0,0.2-0.1,0.2-0.2v-1.8h-2v0.9c0.2,0,0.4-0.1,0.7-0.1c0-0.1-0.1-0.2-0.2-0.3l0.4-0.2
	c0.2,0.3,0.4,0.7,0.7,1.1l-0.4,0.2c-0.1-0.2-0.1-0.3-0.2-0.4c-0.9,0.2-1.9,0.3-2.9,0.4l-0.2-0.5c0.5,0,1-0.1,1.6-0.2v-1h-1.9v2.4
	h-0.5v-2.4h-0.3v-0.5h0.3v-0.4h0.5v0.4H81v-0.7h-2.2v-2.5h4.9v2.5h-2.2v0.7h2.5V37z M81,32.6V32h-1.7v0.6H81z M81,33.6v-0.5h-1.7
	v0.5H81z M84.4,30.9h-1.7v0.4h-0.5v-0.4h-0.7v-0.5h0.7v-0.5h0.5v0.5h1.7V30.9z M83.2,32.6V32h-1.7v0.6H83.2z M83.2,33.6v-0.5h-1.7
	v0.5H83.2z"/>
<path class="st0" d="M96.7,37.4h-4.1v1.4H92v-1.4h-4.2v-0.5H92V36h-3.3v-3.7H92v-0.9H88v-0.5H92v-1h0.5v1h3.9v0.5h-3.9v0.9h3.3V36
	h-3.3v0.9h4.1V37.4z M92,33.8v-1h-2.8v1H92z M92,35.5v-1.1h-2.8v1.1H92z M95.2,33.8v-1h-2.7v1H95.2z M95.2,34.3h-2.7v1.1h2.7
	L95.2,34.3z"/>
<path class="st0" d="M108.4,38.1c0,0.3-0.1,0.5-0.3,0.6c-0.2,0.1-0.6,0.2-1.3,0.2c-0.2,0-0.3,0-0.5,0l-0.2-0.6c0.3,0,0.5,0,0.7,0
	c0.5,0,0.8,0,0.8-0.1c0.1,0,0.1-0.1,0.1-0.2v-2.5H105v3h-0.6v-3h-2.9c-0.2,1.4-0.5,2.5-1.1,3.2l-0.5-0.3c0.7-1,1-2.2,1-3.7v-4.7h7.4
	V38.1z M104.5,32.5v-1.9h-2.9v1.9H104.5z M104.5,35v-2h-2.9v2H104.5z M107.9,32.5v-1.9H105v1.9H107.9z M107.9,35v-2H105v2H107.9z"/>
<path class="st0" d="M121,33.6h-0.5v-1.7h-3.6v2h-0.5v-2H113v1.7h-0.5v-2.2h3.9v-0.8h-3.5v-0.5h7.8v0.5h-3.8v0.8h4.1V33.6z
	 M121.3,37.6c0,0.4-0.2,0.7-0.3,0.9c-0.2,0.2-0.5,0.3-0.9,0.3c-0.4,0-0.9,0-1.4,0c-0.5,0-0.9,0-1.3,0c-0.4,0-0.7-0.1-0.8-0.2
	c-0.1-0.1-0.2-0.3-0.2-0.6v-0.8h-3.3v-2.9h7.1v2.9h-3.3v0.8c0,0.1,0,0.2,0.1,0.2c0.1,0,0.3,0.1,0.7,0.1c0.4,0,0.8,0,1.2,0
	c0.8,0,1.3,0,1.4-0.1c0.1,0,0.2-0.1,0.3-0.3c0.1-0.2,0.1-0.4,0.1-0.6L121.3,37.6z M115.9,33.5c-0.8,0.2-1.6,0.3-2.3,0.4l-0.2-0.5
	c0.8,0,1.5-0.1,2.3-0.3L115.9,33.5z M115.9,32.5l-0.2,0.4c-0.6-0.1-1.3-0.2-2.2-0.3l0.2-0.4C114.6,32.2,115.3,32.3,115.9,32.5z
	 M116.4,35.5v-0.7h-2.7v0.7H116.4z M116.4,36.7v-0.8h-2.7v0.8H116.4z M119.6,35.5v-0.7h-2.7v0.7H119.6z M119.6,36.7v-0.8h-2.7v0.8
	H119.6z M119.9,33.5l-0.2,0.4c-0.7-0.2-1.5-0.3-2.4-0.4l0.2-0.4C118.6,33.2,119.4,33.4,119.9,33.5z M119.9,32.6
	c-0.8,0.1-1.6,0.2-2.3,0.3l-0.2-0.4c0.7-0.1,1.5-0.2,2.3-0.3L119.9,32.6z"/>
<path class="st0" d="M133.4,34.6h-4.1V38c0,0.2-0.1,0.4-0.2,0.6c-0.2,0.2-0.4,0.2-0.6,0.2c-0.4,0-0.8,0-1.3,0l-0.2-0.5
	c0.8,0,1.3,0,1.6,0c0.1,0,0.1,0,0.2-0.1s0.1-0.1,0.1-0.2v-3.4h-4.2v-0.5h4.2v-1.3c1-0.6,1.9-1.3,2.8-2.1h-5.8v-0.5h6.6v0.5
	c-1,0.9-2,1.7-3,2.4v1h4.1V34.6z"/>
<path class="st0" d="M145.6,31.6h-5c-0.2,0.4-0.5,0.8-0.8,1.1h5V38c0,0.3-0.1,0.5-0.3,0.6c-0.2,0.1-0.6,0.2-1.3,0.2
	c-0.3,0-0.5,0-0.8,0l-0.3-0.5c0.3,0,0.6,0,1,0c0.6,0,0.9,0,1-0.1s0.2-0.1,0.2-0.3v-1.3h-5c-0.2,0.9-0.6,1.6-1.1,2.2l-0.5-0.3
	c0.8-0.8,1.3-2.1,1.3-4c0-0.2,0-0.5,0-0.8c-0.7,0.7-1.3,1.2-1.8,1.5l-0.4-0.4c1.4-1,2.5-2.1,3.3-3.4h-3.2v-0.5h3.5
	c0.2-0.4,0.4-0.8,0.6-1.2l0.5,0.2c-0.2,0.4-0.4,0.8-0.5,1.1h4.8V31.6z M144.3,36.1v-1.2h-4.9c0,0.5,0,0.9,0,1.2H144.3z M144.3,34.4
	v-1.2h-4.9v1.2H144.3z"/>
<path class="st0" d="M151.4,33c0.6,0.9,0.9,1.7,0.9,2.4c0,0.4-0.1,0.8-0.4,1c-0.2,0.2-0.7,0.3-1.4,0.3l-0.2-0.5c0.2,0,0.3,0,0.5,0
	c0.4,0,0.6-0.1,0.8-0.2c0.1-0.1,0.2-0.3,0.2-0.7c0-0.7-0.3-1.5-0.9-2.2c0.2-0.6,0.5-1.4,0.8-2.5H150v8.1h-0.5v-8.6h2.6v0.5
	C152,31.2,151.7,32,151.4,33z M157.3,34.2h-3.7v4c0.5-0.1,1.1-0.4,1.7-0.6l0,0.6c-0.7,0.3-1.4,0.5-2.1,0.7l-0.2-0.5
	c0.1-0.1,0.1-0.2,0.1-0.3v-7.9h4.2V34.2z M156.7,31.8v-1.2h-3.1v1.2H156.7z M156.7,33.7v-1.3h-3.1v1.3H156.7z M158.1,38.4l-0.4,0.5
	c-1.5-0.9-2.4-2.2-2.9-3.8l0.5-0.2c0.1,0.4,0.3,0.9,0.5,1.3c0.6-0.4,1.1-0.9,1.6-1.3l0.4,0.3c-0.5,0.5-1.1,1-1.7,1.4
	C156.5,37.3,157.1,37.9,158.1,38.4z"/>
<path class="st0" d="M164.8,30.1c-0.6,1.9-1.7,3.3-3.2,4.5l-0.4-0.4c1.5-1,2.5-2.4,3.1-4.2L164.8,30.1z M169.4,38.6l-0.5,0.3
	c-0.2-0.5-0.4-1-0.6-1.3c-1.9,0.5-3.8,0.8-5.7,1l-0.2-0.5c1-1.2,2-3,3-5.2l0.5,0.2c-0.9,2-1.8,3.7-2.7,4.9c1.3-0.1,2.9-0.4,4.8-0.9
	c-0.3-0.5-0.7-1.2-1.2-1.9l0.5-0.3C168.2,36.3,168.9,37.5,169.4,38.6z M170.2,34.1l-0.3,0.4c-1.2-0.8-2.2-2.1-2.9-3.9h-0.7V30h1.1
	C167.9,31.9,168.9,33.2,170.2,34.1z"/>
<path class="st0" d="M181.9,38c0,0.3-0.1,0.5-0.2,0.6c-0.1,0.1-0.5,0.2-1.2,0.2c-0.3,0-0.6,0-1.1,0l-0.2-0.6c0.6,0,1,0.1,1.4,0.1
	c0.3,0,0.6,0,0.7-0.1c0.1,0,0.1-0.1,0.1-0.3v-7.3h-7.9v-0.5h8.4V38z M180.3,32.5h-6.5l0-0.5h6.5V32.5z M179.6,36.9h-5.1v-3.1h5.1
	V36.9z M179,36.4v-2h-4v2H179z"/>
<g>
	<polygon class="st0" points="50.4,21 47.3,17.5 47.3,6.5 47.3,6.5 47.3,0 47.3,0 47.3,0 45.6,0.9 29,10.5 10.8,0 10.8,0 10.8,6.5 
		10.8,17.5 7.6,21 7.6,27.3 16.1,32.2 16.1,9.6 29,17 29,17 29,17 29,17 29,17 41.9,9.6 41.9,32.2 41.9,32.2 41.9,32.2 41.9,32.2 
		44,31 50.4,27.3 	"/>
	<polygon class="st0" points="18.1,27.2 18.1,33.7 29,40 39.9,33.7 39.9,27.2 29,33.5 	"/>
</g>
</svg>
