<svg xmlns="http://www.w3.org/2000/svg" xmlns:xlink="http://www.w3.org/1999/xlink" viewBox="0 0 128 128"><defs><linearGradient id="未命名漸層_89" x1="11.69" y1="54.36" x2="116.31" y2="54.36" gradientUnits="userSpaceOnUse"><stop offset="0.06" stop-color="#727171"/><stop offset="0.24" stop-color="#484644"/><stop offset="0.4" stop-color="#282522"/><stop offset="0.49" stop-color="#1c1815"/><stop offset="0.57" stop-color="#221f1c"/><stop offset="0.68" stop-color="#34312f"/><stop offset="0.81" stop-color="#514f4e"/><stop offset="0.93" stop-color="#727171"/></linearGradient><linearGradient id="未命名漸層_89-2" x1="37.6" y1="97.76" x2="90.4" y2="97.76" xlink:href="#未命名漸層_89"/></defs><g style="isolation:isolate"><g id="圖層_1" data-name="圖層 1"><g opacity="0.8" style="mix-blend-mode:multiply"><polygon points="13.69 83.62 13.69 68.61 21.48 60.13 21.48 17.52 66.01 43.16 110.52 17.52 110.52 17.56 110.53 17.56 110.53 32.33 110.52 32.64 110.52 60.13 118.31 68.61 118.31 83.62 98.22 95.19 98.22 39.43 66 57.98 33.78 39.43 33.78 95.19 13.69 83.62"/><path d="M22,18.39,65.51,43.45l.5.28.49-.28,41-23.61L110,18.39h0V32.06h0V60.33l.26.28,7.53,8.2V83.33l-15.37,8.85-3.72,2.14V38.57l-1.49.86L66,57.4l-31.23-18-1.5-.86V94.32l-19.09-11V68.81l7.53-8.2.26-.29V18.39M111,16.66h0L107,19,66,42.58,21,16.66h0V59.93l-7.79,8.49V83.91L34.28,96.05V40.29L66,58.56h0L97.72,40.3V96h0l5.22-3,15.87-9.14V68.42L111,59.94V32.64h0v-16Z"/><polygon points="39.6 99.57 39.6 84.75 66 99.95 92.4 84.75 92.4 99.57 66 114.77 39.6 99.57"/><path d="M91.9,85.61V99.28L66,114.19,40.1,99.28V85.61l25.4,14.63.5.28.5-.28L91.9,85.61m1-1.73L66,99.37,39.1,83.88v16L66,115.34,92.9,99.86v-16Z"/></g><polygon points="11.69 81.62 11.69 66.61 19.48 58.13 19.48 15.52 64.01 41.16 108.52 15.52 108.52 15.56 108.53 15.56 108.53 30.33 108.52 30.64 108.52 58.13 116.31 66.61 116.31 81.62 96.22 93.19 96.22 37.43 64 55.98 31.78 37.43 31.78 93.19 11.69 81.62" fill="url(#未命名漸層_89)"/><path d="M20,16.39,63.51,41.45l.5.28.49-.28,41-23.61L108,16.39h0V30.06h0V58.33l.26.28,7.53,8.2V81.33l-15.37,8.85-3.72,2.14V36.57l-1.49.86L64,55.4l-31.23-18-1.5-.86V92.32l-19.09-11V66.81l7.53-8.2.26-.29V16.39M109,14.66h0L105,17,64,40.58,19,14.66h0V57.93l-7.79,8.49V81.91L32.28,94.05V38.29L64,56.56h0L95.72,38.3V94h0l5.22-3,15.87-9.14V66.42L109,57.94V30.64h0v-16Z" fill="#727171"/><polygon points="37.6 97.57 37.6 82.75 64 97.95 90.4 82.75 90.4 97.57 64 112.77 37.6 97.57" fill="url(#未命名漸層_89-2)"/><path d="M89.9,83.61V97.28L64,112.19,38.1,97.28V83.61L63.5,98.24l.5.28.5-.28L89.9,83.61m1-1.73L64,97.37,37.1,81.88v16L64,113.34,90.9,97.86v-16Z" fill="#727171"/></g></g></svg>