<svg xmlns="http://www.w3.org/2000/svg" xmlns:xlink="http://www.w3.org/1999/xlink" viewBox="0 0 1080 408.53"><defs><clipPath id="clip-path"><rect x="-1107.55" y="269.26" width="1106.91" height="1172.7" fill="none"/></clipPath></defs><g id="圖層_3" data-name="圖層 3"><rect y="0.65" width="1080.44" height="411.11" fill="#cbcbcb"/><line x1="566.6" y1="49.52" x2="566.6" y2="377.73" fill="none" stroke="#333" stroke-miterlimit="10"/></g><g id="圖層_2" data-name="圖層 2"><text transform="translate(147.41 60.94)" font-size="12" font-family="jf-openhuninn-1.1" letter-spacing="0.1em">產品名稱<tspan x="0" y="21">作業系統</tspan><tspan x="52.8" y="21" letter-spacing="1.31em">	</tspan><tspan x="72" y="21" xml:space="preserve">      </tspan><tspan x="0" y="42">硬體</tspan><tspan x="26.4" y="42" letter-spacing="0.51em">	</tspan><tspan x="36" y="42" xml:space="preserve">              </tspan><tspan x="0" y="63">RAM/ROM</tspan><tspan x="71.18" y="63" letter-spacing="-0.22em">	</tspan><tspan x="72" y="63" letter-spacing="2.71em">	</tspan><tspan x="108" y="63" xml:space="preserve">       </tspan><tspan x="0" y="84">螢幕解析度</tspan><tspan x="0" y="105">藍芽</tspan><tspan x="0" y="126">收音機</tspan><tspan x="39.6" y="126" letter-spacing="2.41em">	</tspan><tspan x="72" y="126" xml:space="preserve">        </tspan><tspan x="0" y="147">DSP</tspan><tspan x="27.49" y="147" letter-spacing="0.42em">	</tspan><tspan x="36" y="147" xml:space="preserve">       </tspan><tspan x="0" y="168" xml:space="preserve">GPS        </tspan><tspan x="65.29" y="168" letter-spacing="0.27em">	</tspan><tspan x="72" y="168" letter-spacing="2.71em">	</tspan><tspan x="108" y="168" xml:space="preserve">        </tspan><tspan x="0" y="189">USB</tspan><tspan x="27.82" y="189" letter-spacing="0.39em">	</tspan><tspan x="36" y="189"> </tspan><tspan x="0" y="210">無線連接</tspan><tspan x="52.8" y="210" letter-spacing="1.31em">	</tspan><tspan x="72" y="210" xml:space="preserve">        </tspan><tspan x="109.73" y="210" letter-spacing="2.56em">	</tspan><tspan x="0" y="231">高清倒車</tspan><tspan x="52.8" y="231" letter-spacing="1.31em">	</tspan><tspan x="72" y="231"> </tspan><tspan x="76.72" y="231" letter-spacing="2.31em">	</tspan><tspan x="108" y="231" letter-spacing="2.71em">	</tspan><tspan x="0" y="252">方向盤控制</tspan><tspan x="66" y="252" letter-spacing="0.21em">	</tspan><tspan x="0" y="273">分割畫面PIP</tspan><tspan x="0" y="294">行車紀錄器</tspan><tspan x="66" y="294" letter-spacing="0.21em">	</tspan><tspan x="72" y="294" xml:space="preserve">        </tspan><tspan x="109.73" y="294" letter-spacing="2.56em">	</tspan><tspan x="144" y="294" xml:space="preserve">              </tspan><tspan x="0" y="315">頭枕輸出</tspan><tspan x="52.8" y="315" letter-spacing="1.31em">	</tspan></text><text transform="translate(336.13 60.94)" font-size="12" fill="#333" font-family="jf-openhuninn-1.1" letter-spacing="0.1em">車用多媒體機-ME66<tspan x="0" y="21">安卓8.1</tspan><tspan x="0" y="42">4core 1.6GHz</tspan><tspan x="0" y="63">2GB+16GB</tspan><tspan x="0" y="84">1280*720</tspan><tspan x="0" y="105">藍芽 4.0</tspan><tspan x="0" y="126">FM</tspan><tspan x="0" y="147">基礎EQ調音</tspan><tspan x="0" y="168">Naviking A5I</tspan><tspan x="0" y="189">雙USB</tspan><tspan x="0" y="210">Wi-Fi熱點連接</tspan><tspan x="0" y="231">CVBS、AHD、TVI</tspan><tspan x="0" y="252">O</tspan><tspan x="0" y="273">O</tspan><tspan x="0" y="294">(選配) USB DVR</tspan><tspan x="0" y="315">標配</tspan></text></g><g id="words"><text transform="translate(622.46 59.73)" font-size="12" font-family="jf-openhuninn-1.1" letter-spacing="0.1em">內容物<tspan fill="#2a2d24"><tspan x="0" y="21">主機*1</tspan><tspan x="0" y="42">鎖框螺絲*6 </tspan><tspan x="0" y="63">GPS天線*1</tspan><tspan x="0" y="84">倒車影像線*I</tspan><tspan x="0" y="105">RCA輸出線*1</tspan><tspan x="0" y="126">USB CABLE線*2</tspan><tspan x="0" y="147">說明書為電子檔已隨機導入</tspan><tspan x="0" y="168">保固一年</tspan></tspan><tspan x="0" y="210">注意事項</tspan><tspan x="52.8" y="210" xml:space="preserve" fill="#2a2d24">  </tspan><tspan fill="#2a2d24"><tspan x="0" y="231">1.避免下載使用通訊類軟體</tspan><tspan x="13" y="252">例如FACEBOOK.LINE,WECHAT等</tspan><tspan x="13" y="273">可能造成車機速度緩慢或當機 </tspan><tspan x="0" y="294">2.建議以行車安全考量，避免下載大量軟體</tspan><tspan x="0" y="315">3.建議定時清除背景執行程式，減輕車機負擔</tspan></tspan></text><path d="M960.74,362.44l5-16.84h6.13l.56,5.45c.06.58.1,1.18.13,1.8s0,1.25,0,1.91l4-9.16h6.15l-.8,16.84h-5.61l.74-9c-.15.43-.31.86-.49,1.32s-.38.91-.61,1.39l-2.92,6.29h-3.46l-.95-8.74a13.25,13.25,0,0,1-.23,1.33c-.1.45-.21.92-.35,1.41l-1.69,6Z" fill="#231815"/><path d="M984,362.44l3.11-16.84h11.55l-.83,4.57h-5.49l-.31,1.62h5.17l-.78,4.27h-5.16l-.33,1.81h6l-.84,4.57Z" fill="#231815"/><path d="M998.68,362.44l3.12-16.84H1008l-3.11,16.84Z" fill="#231815"/><path d="M1007.23,362.44l5-16.84h6.13l.56,5.45c.06.58.1,1.18.13,1.8s0,1.25,0,1.91l4-9.16h6.15l-.8,16.84h-5.61l.74-9c-.15.43-.31.86-.49,1.32s-.39.91-.61,1.39l-2.92,6.29h-3.46l-.95-8.74A13.25,13.25,0,0,1,1015,355c-.1.45-.21.92-.35,1.41l-1.69,6Z" fill="#231815"/><path d="M1028.85,362.44l8.79-16.84h6.66l2.19,16.84h-6l-.11-2.24h-4.05l-.92,2.24Zm9.15-6.22h2.16l-.07-1.81q0-.15,0-.42c0-.76,0-1.36,0-1.82v-.71c0-.16,0-.32,0-.47-.14.46-.28.89-.43,1.31s-.28.79-.41,1.12Z" fill="#231815"/><path d="M1047.45,362.44l3.12-16.84h6.19l-3.11,16.84Z" fill="#231815"/><path d="M968.19,370.43H964.9a2.37,2.37,0,0,1-.92,1.24,8.12,8.12,0,0,1-2.46,1l-.25-.38a8.7,8.7,0,0,0,2.11-.74,2.09,2.09,0,0,0,1.08-1.1h-2.92v-.38h3a2.05,2.05,0,0,0,.08-.63l.43,0a4.5,4.5,0,0,1-.07.61h3.19Zm.22-1.26H961.3v-.42h3.34V368H962v-.39h2.66v-.75h-3v-.4H968v.4h-3v.75h2.66V368h-2.66v.76h3.35Zm-4.36-3.09-.38.25a3.43,3.43,0,0,0-.85-.65l.4-.26A3.35,3.35,0,0,1,964.05,366.08Zm4.3,6.26-.27.35a15.57,15.57,0,0,0-3-1.43l.22-.36A15.78,15.78,0,0,1,968.35,372.34Zm-1.61-6.66a4.19,4.19,0,0,1-.88.65l-.39-.25a4.23,4.23,0,0,0,.9-.64Z" fill="#262222"/><path d="M978.21,372.11l-.1.42h-3.22a3.21,3.21,0,0,1-2.61-1,4.78,4.78,0,0,1-.88,1.11l-.35-.28a4.51,4.51,0,0,0,1.47-2.59H971.3v-.42a16.17,16.17,0,0,0,1.21-1.65H971.1v-.41H973v.41a12.36,12.36,0,0,1-1.17,1.66H973v.41a5.77,5.77,0,0,1-.47,1.4,2.52,2.52,0,0,0,.88.67,3.76,3.76,0,0,0,1.52.24Zm-5.45-5.38-.31.29a8,8,0,0,0-1.15-1.13l.29-.3A8.78,8.78,0,0,1,972.76,366.73Zm2.72-.43H975v.35h-.43v-.35h-1.38v-.37h1.38v-.43H975v.43h.52Zm2.42,4.91a.56.56,0,0,1-.08.3.47.47,0,0,1-.22.2,4,4,0,0,1-.91.05l-.14-.41h.74c.13,0,.2-.06.2-.18v-1.42H975.9v.72l.6-.1a.54.54,0,0,0-.16-.22l.35-.18a5.46,5.46,0,0,1,.53.91l-.36.19a2.37,2.37,0,0,0-.15-.34c-.76.13-1.53.23-2.31.31l-.17-.38c.41,0,.83-.07,1.25-.13v-.78H974v2h-.42v-2h-.25v-.38h.25v-.29H974v.29h1.53v-.53h-1.75v-2h3.92v2H975.9v.53h2Zm-2.42-3.53v-.46h-1.32v.46Zm0,.8V368h-1.32v.44Zm2.73-2.18h-1.35v.35h-.43v-.35h-.58v-.37h.58v-.43h.43v.43h1.35Zm-1,1.38v-.46H975.9v.46Zm0,.8V368H975.9v.44Z" fill="#262222"/><path d="M988,371.51H984.7v1.12h-.43v-1.12h-3.33v-.42h3.33v-.71h-2.63v-3h2.63v-.72h-3.16v-.41h3.16v-.8h.43v.8h3.15v.41H984.7v.72h2.61v3H984.7v.71H988Zm-3.75-2.85v-.84h-2.2v.84Zm0,1.3v-.9h-2.2v.9Zm2.61-1.3v-.84H984.7v.84Zm0,.4H984.7v.9h2.17Z" fill="#262222"/><path d="M997.46,372.05a.47.47,0,0,1-.24.46,2.53,2.53,0,0,1-1.06.14h-.37l-.13-.45.59,0a2.51,2.51,0,0,0,.68-.05.16.16,0,0,0,.1-.16v-2h-2.31v2.4h-.45V370h-2.33a5.43,5.43,0,0,1-.84,2.57l-.39-.26a5.09,5.09,0,0,0,.83-3v-3.75h5.92Zm-3.19-4.47v-1.49H992v1.49Zm0,2V368H992v1.59Zm2.76-2v-1.49h-2.31v1.49Zm0,2V368h-2.31v1.59Z" fill="#262222"/><path d="M1007.49,368.44h-.41V367h-2.86v1.62h-.42V367h-2.67v1.4h-.42v-1.79h3.09v-.6H1001v-.38h6.23v.38h-3v.6h3.27Zm.25,3.21a1.25,1.25,0,0,1-.25.71,1.09,1.09,0,0,1-.7.25l-1.13,0c-.36,0-.7,0-1,0a1.15,1.15,0,0,1-.65-.18.69.69,0,0,1-.16-.51v-.6h-2.61V369h5.65v2.34h-2.61V372a.19.19,0,0,0,.07.16,1.7,1.7,0,0,0,.52.08c.3,0,.63,0,1,0a6.85,6.85,0,0,0,1.12-.05.37.37,0,0,0,.25-.24,2.1,2.1,0,0,0,.1-.5Zm-4.27-3.24a9.37,9.37,0,0,1-1.84.3l-.14-.37a10.7,10.7,0,0,0,1.84-.25Zm0-.84-.14.35a11.84,11.84,0,0,0-1.78-.25l.18-.35A13.14,13.14,0,0,1,1003.47,367.57Zm.35,2.38v-.59h-2.19V370Zm0,1v-.61h-2.19v.61Zm2.61-1v-.59h-2.18V370Zm0,1v-.61h-2.18v.61Zm.24-2.51-.18.34a11.59,11.59,0,0,0-1.93-.32l.18-.33A9.55,9.55,0,0,1,1006.67,368.42Zm0-.74a18.1,18.1,0,0,1-1.87.24l-.12-.34a15.31,15.31,0,0,0,1.84-.26Z" fill="#262222"/><path d="M1017.45,369.27h-3.29V372a.63.63,0,0,1-.19.47.66.66,0,0,1-.49.18l-1.06,0-.16-.44,1.27,0a.19.19,0,0,0,.14-.08.24.24,0,0,0,.05-.14v-2.73h-3.36v-.43h3.36v-1.06a13.32,13.32,0,0,0,2.23-1.66h-4.69v-.44h5.3v.44a15.77,15.77,0,0,1-2.4,1.89v.83h3.29Z" fill="#262222"/><path d="M1027.28,366.85h-4a10.51,10.51,0,0,1-.6.92h4V372a.52.52,0,0,1-.23.49,2.61,2.61,0,0,1-1.07.13c-.22,0-.43,0-.64,0l-.2-.42c.25,0,.51,0,.79,0a2.82,2.82,0,0,0,.8-.06.22.22,0,0,0,.13-.21v-1.06h-4a3.34,3.34,0,0,1-.91,1.78l-.4-.24a4.12,4.12,0,0,0,1-3.17c0-.16,0-.36,0-.61a10.14,10.14,0,0,1-1.48,1.25l-.32-.33a8.35,8.35,0,0,0,2.63-2.74h-2.55v-.42h2.8c.16-.29.32-.61.48-1l.44.12c-.16.35-.3.63-.42.85h3.81Zm-1,3.66v-1h-3.92a8.44,8.44,0,0,1,0,1Zm0-1.41v-.93h-3.9v.93Z" fill="#262222"/><path d="M1031.86,368a3.43,3.43,0,0,1,.72,1.92,1,1,0,0,1-.29.79,1.57,1.57,0,0,1-1.14.25l-.17-.43h.41a.88.88,0,0,0,.6-.14.67.67,0,0,0,.16-.53,2.78,2.78,0,0,0-.74-1.77c.17-.46.39-1.11.65-2h-1.29v6.51h-.41v-6.93h2.1v.42A15.62,15.62,0,0,1,1031.86,368Zm4.76.95h-3v3.17a9,9,0,0,0,1.33-.49l0,.45a12.92,12.92,0,0,1-1.69.58l-.2-.42a.31.31,0,0,0,.09-.22v-6.32h3.4Zm-.44-1.87v-1h-2.52v1Zm0,1.45v-1h-2.52v1Zm1.07,3.81-.29.36a5.13,5.13,0,0,1-2.31-3.05l.4-.17a5.22,5.22,0,0,0,.4,1,6.44,6.44,0,0,0,1.26-1.07l.33.28a9.5,9.5,0,0,1-1.38,1.14A4,4,0,0,0,1037.25,372.32Z" fill="#262222"/><path d="M1042.63,365.64a6.91,6.91,0,0,1-2.6,3.58l-.33-.33a6.28,6.28,0,0,0,2.5-3.4Zm3.71,6.86-.38.21a6.58,6.58,0,0,0-.51-1,28.8,28.8,0,0,1-4.6.8l-.13-.42a16.24,16.24,0,0,0,2.39-4.2l.41.18a18.51,18.51,0,0,1-2.16,3.95,22.93,22.93,0,0,0,3.87-.7,15.79,15.79,0,0,0-1-1.51l.38-.22A15.45,15.45,0,0,1,1046.34,372.5Zm.61-3.67-.27.36a6.46,6.46,0,0,1-2.35-3.15h-.55v-.45h.88A5.81,5.81,0,0,0,1047,368.83Z" fill="#262222"/><path d="M1056.34,372a.56.56,0,0,1-.18.46,2,2,0,0,1-1,.14l-.87,0-.15-.46c.46,0,.83.05,1.1.05a1.67,1.67,0,0,0,.52-.05c.07,0,.1-.11.1-.23v-5.86h-6.29v-.42h6.73Zm-1.3-4.47h-5.19v-.41H1055Zm-.57,3.55h-4.09v-2.48h4.09Zm-.44-.42v-1.64h-3.2v1.64Z" fill="#262222"/><polygon points="950.93 358.35 948.4 355.59 948.4 346.72 948.4 346.72 948.4 341.53 948.4 341.53 948.4 341.53 947.09 342.28 933.77 349.95 919.14 341.53 919.14 341.53 919.14 346.72 919.14 355.59 916.61 358.35 916.61 363.38 923.46 367.33 923.46 349.21 933.77 355.14 933.77 355.14 933.77 355.14 933.77 355.14 933.77 355.14 944.08 349.21 944.08 367.32 944.08 367.33 944.08 367.33 944.08 367.33 945.77 366.35 950.93 363.38 950.93 358.35" fill="#262222"/><polygon points="925.03 363.38 925.03 368.57 933.77 373.6 942.51 368.57 942.51 363.38 933.77 368.41 925.03 363.38" fill="#262222"/><path d="M917.16,381.66v-5.74h.93l2.07,5,2.07-5h.94v5.74h-.62v-5l-2.08,5h-.62l-2.07-5v5Z" fill="gray"/><path d="M924.7,379.55a2.06,2.06,0,0,1,.17-.86,2.09,2.09,0,0,1,1.19-1.19,2.27,2.27,0,0,1,.86-.16,2.13,2.13,0,0,1,1.58.63,2.28,2.28,0,0,1,.65,1.66h-3.86a1.6,1.6,0,0,0,1.63,1.6,1.63,1.63,0,0,0,.9-.26,1.56,1.56,0,0,0,.59-.7H929a2.22,2.22,0,0,1-.81,1.09,2.29,2.29,0,0,1-2.89-.24,2.25,2.25,0,0,1-.47-.71A2.1,2.1,0,0,1,924.7,379.55Zm3.8-.45a1.5,1.5,0,0,0-.55-.89,1.6,1.6,0,0,0-1-.35,1.62,1.62,0,0,0-1,.35,1.55,1.55,0,0,0-.55.89Z" fill="gray"/><path d="M930.57,375.92h.59v.72h-.59Zm0,5.74v-4.23h.59v4.23Z" fill="gray"/><path d="M932.55,379.61v-.51h2.07v.51Z" fill="gray"/><path d="M936.09,381.66v-5.74H937l2.07,5,2.07-5h.93v5.74h-.62v-5l-2.07,5h-.62l-2.07-5v5Z" fill="gray"/><path d="M943.62,379.55a2.27,2.27,0,0,1,.17-.86,2.36,2.36,0,0,1,.49-.72,2.3,2.3,0,0,1,.72-.47,2.22,2.22,0,0,1,.85-.16,2.25,2.25,0,0,1,.89.18,2.21,2.21,0,0,1,.74.54v-.63h.59v4.23h-.59V381a2.21,2.21,0,0,1-.74.54,2.26,2.26,0,0,1-.89.19,2.22,2.22,0,0,1-.85-.17,2.3,2.3,0,0,1-.72-.47,2.36,2.36,0,0,1-.49-.72A2.22,2.22,0,0,1,943.62,379.55Zm2.23-1.69a1.56,1.56,0,0,0-1.17.48,1.78,1.78,0,0,0,0,2.41,1.67,1.67,0,0,0,2.34,0,1.81,1.81,0,0,0,0-2.41A1.56,1.56,0,0,0,945.85,377.86Z" fill="gray"/><path d="M949.75,375.92h.59v.72h-.59Zm0,5.74v-4.23h.59v4.23Z" fill="gray"/><path d="M956.69,381.66l-2.33-5.74H955l2,4.86,2-4.86h.66l-2.33,5.74Z" fill="gray"/><path d="M960.69,379.55a2.24,2.24,0,0,1,.17-.86,2.16,2.16,0,0,1,.48-.72,2.09,2.09,0,0,1,.72-.47,2.27,2.27,0,0,1,.86-.16,2.15,2.15,0,0,1,1.58.63,2.27,2.27,0,0,1,.64,1.66h-3.86a1.62,1.62,0,0,0,.49,1.14,1.55,1.55,0,0,0,1.15.46,1.6,1.6,0,0,0,.89-.26,1.56,1.56,0,0,0,.59-.7H965a2.18,2.18,0,0,1-.82,1.09,2.25,2.25,0,0,1-1.3.4,2.27,2.27,0,0,1-.86-.17,2.09,2.09,0,0,1-.72-.47,2.12,2.12,0,0,1-.48-.71A2.27,2.27,0,0,1,960.69,379.55Zm3.81-.45a1.55,1.55,0,0,0-.55-.89,1.64,1.64,0,0,0-1-.35,1.6,1.6,0,0,0-1,.35,1.5,1.5,0,0,0-.55.89Z" fill="gray"/><path d="M966.39,379.55A2.12,2.12,0,0,1,967,378a2.25,2.25,0,0,1,1.63-.63,2.3,2.3,0,0,1,1.23.32,2.11,2.11,0,0,1,.82.9h-.66a1.57,1.57,0,0,0-1.39-.7,1.63,1.63,0,0,0-1.68,1.69,1.61,1.61,0,0,0,1.68,1.68,1.86,1.86,0,0,0,.79-.17,1.47,1.47,0,0,0,.57-.48h.67a2.18,2.18,0,0,1-.83.87,2.28,2.28,0,0,1-1.2.31,2.26,2.26,0,0,1-1.63-.64A2.11,2.11,0,0,1,966.39,379.55Z" fill="gray"/><path d="M972.29,381.66v-5.74h.59v2a1.8,1.8,0,0,1,1.35-.56,1.68,1.68,0,0,1,1.28.52,1.88,1.88,0,0,1,.5,1.35v2.45h-.59v-2.45a1.41,1.41,0,0,0-.35-1,1.16,1.16,0,0,0-.89-.38,1.24,1.24,0,0,0-.93.38,1.34,1.34,0,0,0-.37,1v2.45Z" fill="gray"/><path d="M977.62,375.92h.59v.72h-.59Zm0,5.74v-4.23h.59v4.23Z" fill="gray"/><path d="M979.66,379.55a2.16,2.16,0,0,1,.64-1.58,2.26,2.26,0,0,1,1.63-.63,2.3,2.3,0,0,1,1.23.32,2.11,2.11,0,0,1,.82.9h-.66a1.57,1.57,0,0,0-1.39-.7,1.63,1.63,0,0,0-1.68,1.69,1.61,1.61,0,0,0,1.68,1.68,1.86,1.86,0,0,0,.79-.17,1.47,1.47,0,0,0,.57-.48H984a2.11,2.11,0,0,1-.83.87,2.43,2.43,0,0,1-2.83-.33A2.15,2.15,0,0,1,979.66,379.55Z" fill="gray"/><path d="M985.51,381.66v-5.74h.59v5.74Z" fill="gray"/><path d="M987.55,379.55a2.23,2.23,0,0,1,.16-.86,2.16,2.16,0,0,1,.48-.72,2.3,2.3,0,0,1,.72-.47,2.27,2.27,0,0,1,.86-.16,2.15,2.15,0,0,1,1.58.63,2.27,2.27,0,0,1,.64,1.66h-3.85a1.57,1.57,0,0,0,.48,1.14,1.55,1.55,0,0,0,1.15.46,1.6,1.6,0,0,0,.89-.26,1.5,1.5,0,0,0,.59-.7h.64a2.22,2.22,0,0,1-.81,1.09,2.29,2.29,0,0,1-2.89-.24,2.12,2.12,0,0,1-.48-.71A2.27,2.27,0,0,1,987.55,379.55Zm3.8-.45a1.55,1.55,0,0,0-.55-.89,1.69,1.69,0,0,0-2.06,0,1.5,1.5,0,0,0-.55.89Z" fill="gray"/><path d="M996.05,379.55a2.23,2.23,0,0,1,.16-.86,2.16,2.16,0,0,1,.48-.72,2.3,2.3,0,0,1,.72-.47,2.27,2.27,0,0,1,.86-.16,2.15,2.15,0,0,1,1.58.63,2.27,2.27,0,0,1,.64,1.66h-3.85a1.6,1.6,0,0,0,1.63,1.6,1.6,1.6,0,0,0,.89-.26,1.52,1.52,0,0,0,.6-.7h.63a2.22,2.22,0,0,1-.81,1.09,2.29,2.29,0,0,1-2.89-.24,2.12,2.12,0,0,1-.48-.71A2.27,2.27,0,0,1,996.05,379.55Zm3.8-.45a1.5,1.5,0,0,0-.55-.89,1.6,1.6,0,0,0-1-.35,1.62,1.62,0,0,0-1,.35,1.55,1.55,0,0,0-.55.89Z" fill="gray"/><path d="M1001.91,381.66v-5.74h.59v5.74Z" fill="gray"/><path d="M1004,379.55a2.24,2.24,0,0,1,.17-.86,2.16,2.16,0,0,1,.48-.72,2.09,2.09,0,0,1,.72-.47,2.27,2.27,0,0,1,.86-.16,2.15,2.15,0,0,1,1.58.63,2.27,2.27,0,0,1,.64,1.66h-3.86a1.62,1.62,0,0,0,.49,1.14,1.55,1.55,0,0,0,1.15.46,1.6,1.6,0,0,0,.89-.26,1.56,1.56,0,0,0,.59-.7h.64a2.22,2.22,0,0,1-.81,1.09,2.3,2.3,0,0,1-1.31.4,2.27,2.27,0,0,1-.86-.17,2.09,2.09,0,0,1-.72-.47,2.12,2.12,0,0,1-.48-.71A2.27,2.27,0,0,1,1004,379.55Zm3.81-.45a1.55,1.55,0,0,0-.55-.89,1.62,1.62,0,0,0-1-.35,1.6,1.6,0,0,0-1,.35,1.5,1.5,0,0,0-.55.89Z" fill="gray"/><path d="M1009.65,379.55a2.16,2.16,0,0,1,.64-1.58,2.26,2.26,0,0,1,1.63-.63,2.3,2.3,0,0,1,1.23.32,2.11,2.11,0,0,1,.82.9h-.66a1.57,1.57,0,0,0-1.39-.7,1.63,1.63,0,0,0-1.68,1.69,1.61,1.61,0,0,0,1.68,1.68,1.86,1.86,0,0,0,.79-.17,1.47,1.47,0,0,0,.57-.48h.67a2.11,2.11,0,0,1-.83.87,2.43,2.43,0,0,1-2.83-.33A2.15,2.15,0,0,1,1009.65,379.55Z" fill="gray"/><path d="M1016,381.66V378h-.95v-.53h.95v-1.2h.59v1.2h1V378h-1v3.7Z" fill="gray"/><path d="M1018.83,381.66v-4.23h.6v.47a1.74,1.74,0,0,1,1.3-.56v.52a1.27,1.27,0,0,0-.94.38,1.37,1.37,0,0,0-.36,1v2.45Z" fill="gray"/><path d="M1021.6,379.55a2.24,2.24,0,0,1,.17-.86,2.17,2.17,0,0,1,1.19-1.19,2.32,2.32,0,0,1,.87-.16,2.27,2.27,0,0,1,.86.16,2.3,2.3,0,0,1,.72.47,2.16,2.16,0,0,1,.48.72,2.23,2.23,0,0,1,.16.86,2.27,2.27,0,0,1-.16.86,2.12,2.12,0,0,1-.48.71,2.3,2.3,0,0,1-.72.47,2.27,2.27,0,0,1-.86.17,2.32,2.32,0,0,1-.87-.17,2.15,2.15,0,0,1-.71-.47,2.12,2.12,0,0,1-.48-.71A2.27,2.27,0,0,1,1021.6,379.55Zm2.23-1.69a1.56,1.56,0,0,0-1.17.48,1.78,1.78,0,0,0,0,2.41,1.67,1.67,0,0,0,2.34,0,1.81,1.81,0,0,0,0-2.41A1.56,1.56,0,0,0,1023.83,377.86Z" fill="gray"/><path d="M1027.56,381.66v-4.23h.59v.47a1.8,1.8,0,0,1,1.35-.56,1.68,1.68,0,0,1,1.28.52,1.88,1.88,0,0,1,.5,1.35v2.45h-.59v-2.45a1.36,1.36,0,0,0-.35-1,1.16,1.16,0,0,0-.89-.38,1.25,1.25,0,0,0-.93.38,1.34,1.34,0,0,0-.37,1v2.45Z" fill="gray"/><path d="M1032.89,375.92h.59v.72h-.59Zm0,5.74v-4.23h.59v4.23Z" fill="gray"/><path d="M1034.93,379.55a2.13,2.13,0,0,1,.65-1.58,2.22,2.22,0,0,1,1.62-.63,2.28,2.28,0,0,1,1.23.32,2,2,0,0,1,.82.9h-.66a1.57,1.57,0,0,0-1.39-.7,1.64,1.64,0,0,0-1.68,1.69,1.63,1.63,0,0,0,1.68,1.68,1.83,1.83,0,0,0,.79-.17,1.47,1.47,0,0,0,.57-.48h.67a2.11,2.11,0,0,1-.83.87,2.28,2.28,0,0,1-1.2.31,2.23,2.23,0,0,1-1.62-.64A2.12,2.12,0,0,1,1034.93,379.55Z" fill="gray"/><path d="M1043.66,381.66v-5.74h.62v5.2h2.36v.54Z" fill="gray"/><path d="M1048.68,381.66v-5.19h-1.26v-.55h3.15v.55h-1.27v5.19Z" fill="gray"/><path d="M1051.86,381.66v-5.74h1.78a3.71,3.71,0,0,1,1.26.22,2.86,2.86,0,0,1,1,.62,2.9,2.9,0,0,1,.63.92,3.07,3.07,0,0,1,0,2.23,2.86,2.86,0,0,1-.63.91,3,3,0,0,1-1,.63,3.7,3.7,0,0,1-1.26.21Zm1.78-5.19h-1.16v4.65h1.16a2.46,2.46,0,0,0,1.8-.67,2.27,2.27,0,0,0,.51-.75,2.49,2.49,0,0,0,0-1.81,2.17,2.17,0,0,0-.51-.75A2.46,2.46,0,0,0,1053.64,376.47Z" fill="gray"/></g></svg>