<svg xmlns="http://www.w3.org/2000/svg" xmlns:xlink="http://www.w3.org/1999/xlink" viewBox="0 0 1080 408.53"><defs><clipPath id="clip-path"><rect x="-1108.08" y="-1223.03" width="1106.91" height="1172.7" fill="none"/></clipPath></defs><g id="圖層_3" data-name="圖層 3"><rect width="1080" height="408.53" fill="#cbcbcb"/><line x1="568.6" y1="49.52" x2="568.6" y2="377.73" fill="none" stroke="#333" stroke-miterlimit="10"/></g><g id="圖層_2" data-name="圖層 2"><text transform="translate(147.42 60.94)" font-size="12" fill="#2a2d24" font-family="jf-openhuninn-1.1" letter-spacing="0.1em">產品名稱<tspan x="0" y="21">作業系統</tspan><tspan x="52.8" y="21" letter-spacing="1.31em">	</tspan><tspan x="72" y="21" xml:space="preserve">      </tspan><tspan x="0" y="42">硬體</tspan><tspan x="26.4" y="42" letter-spacing="0.51em">	</tspan><tspan x="36" y="42" xml:space="preserve">              </tspan><tspan x="0" y="63">RAM/ROM</tspan><tspan x="71.18" y="63" letter-spacing="-0.22em">	</tspan><tspan x="72" y="63" letter-spacing="2.71em">	</tspan><tspan x="108" y="63" xml:space="preserve">       </tspan><tspan x="0" y="84">螢幕解析度</tspan><tspan x="0" y="105">藍芽</tspan><tspan x="0" y="126">收音機</tspan><tspan x="39.6" y="126" letter-spacing="2.41em">	</tspan><tspan x="72" y="126" xml:space="preserve">        </tspan><tspan x="0" y="147">DSP</tspan><tspan x="27.49" y="147" letter-spacing="0.42em">	</tspan><tspan x="36" y="147" xml:space="preserve">       </tspan><tspan x="0" y="168" xml:space="preserve">GPS        </tspan><tspan x="65.29" y="168" letter-spacing="0.27em">	</tspan><tspan x="72" y="168" letter-spacing="2.71em">	</tspan><tspan x="108" y="168" xml:space="preserve">        </tspan><tspan x="0" y="189">USB</tspan><tspan x="27.82" y="189" letter-spacing="0.39em">	</tspan><tspan x="36" y="189"> </tspan><tspan x="0" y="210">Carplay</tspan><tspan x="50.81" y="210" letter-spacing="1.47em">	</tspan><tspan x="72" y="210" xml:space="preserve">        </tspan><tspan x="109.73" y="210" letter-spacing="2.56em">	</tspan><tspan x="0" y="231">高清倒車</tspan><tspan x="52.8" y="231" letter-spacing="1.31em">	</tspan><tspan x="72" y="231"> </tspan><tspan x="76.72" y="231" letter-spacing="2.31em">	</tspan><tspan x="108" y="231" letter-spacing="2.71em">	</tspan><tspan x="0" y="252">方向盤控制</tspan><tspan x="66" y="252" letter-spacing="0.21em">	</tspan><tspan x="0" y="273">分割畫面PIP</tspan><tspan x="0" y="294">行車紀錄器</tspan><tspan x="66" y="294" letter-spacing="0.21em">	</tspan><tspan x="72" y="294" xml:space="preserve">        </tspan><tspan x="109.73" y="294" letter-spacing="2.56em">	</tspan><tspan x="144" y="294" xml:space="preserve">              </tspan><tspan x="0" y="315">頭枕輸出</tspan><tspan x="52.8" y="315" letter-spacing="1.31em">	</tspan></text><text transform="translate(336.13 60.94)" font-size="12" fill="#2a2d24" font-family="jf-openhuninn-1.1" letter-spacing="0.1em">車用多媒體機-ME99T<tspan x="0" y="21">安卓10.0</tspan><tspan x="0" y="42">8core 1.8GHz</tspan><tspan x="0" y="63">8GB+128GB</tspan><tspan x="0" y="84">1280*720</tspan><tspan x="0" y="105">藍芽 5.0</tspan><tspan x="0" y="126">FM/AM</tspan><tspan x="0" y="147">48 段EQ</tspan><tspan x="0" y="168">Naviking A5I</tspan><tspan x="0" y="189">雙USB</tspan><tspan x="0" y="210">Wi-Fi熱點連接、PHONELINK</tspan><tspan x="0" y="231">CVBS、AHD、TVI</tspan><tspan x="0" y="252">O</tspan><tspan x="0" y="273">O</tspan><tspan x="0" y="294">(選配) USB DVR</tspan><tspan x="0" y="315">(選配) AVI、HDMI</tspan></text></g><g id="words"><text transform="translate(624.46 59.73)" font-size="12" font-family="jf-openhuninn-1.1" letter-spacing="0.1em">隨機配件<tspan fill="#2a2d24"><tspan x="0" y="21">主機 鎖框螺絲*6 </tspan><tspan x="0" y="42">GPS天線*1</tspan><tspan x="0" y="63">倒車影像線*I</tspan><tspan x="0" y="84">RCA輸出線*1</tspan><tspan x="0" y="105">USB CABLE線*2</tspan><tspan x="0" y="126">說明書為電子檔已隨機導入</tspan><tspan x="0" y="147">保固一年</tspan></tspan><tspan x="0" y="189">注意事項</tspan><tspan x="52.8" y="189" xml:space="preserve" fill="#2a2d24">  </tspan><tspan fill="#2a2d24"><tspan x="0" y="210">1.避免下載使用通訊類軟體</tspan><tspan x="13" y="231">例如FACEBOOK.LINE,WECHAT等</tspan><tspan x="13" y="252">可能造成車機速度緩慢或當機 </tspan><tspan x="0" y="273">2.建議以行車安全考量，避免下載大量軟體</tspan><tspan x="0" y="294">3.建議定時清除背景執行程式，減輕車機負擔</tspan></tspan></text><path d="M977.19,376l4.21-14.08h5.13l.47,4.56c0,.49.07,1,.1,1.5s0,1.05,0,1.6l3.38-7.66h5.13L995,376h-4.7l.62-7.52c-.12.35-.26.72-.41,1.1s-.32.76-.5,1.16L987.54,376h-2.89l-.79-7.31c0,.37-.11.74-.19,1.12s-.18.77-.3,1.17L982,376Z" fill="#333"/><path d="M996.63,376l2.6-14.08h9.65l-.69,3.82h-4.59l-.26,1.36h4.32l-.66,3.56h-4.3l-.28,1.52h5l-.7,3.82Z" fill="#333"/><path d="M1008.9,376l2.6-14.08h5.18l-2.6,14.08Z" fill="#333"/><path d="M1016,376l4.21-14.08h5.13l.47,4.56c0,.49.08,1,.1,1.5s0,1.05,0,1.6l3.38-7.66h5.13l-.66,14.08h-4.69l.61-7.52c-.12.35-.26.72-.41,1.1s-.31.76-.5,1.16L1026.4,376h-2.9l-.78-7.31c-.05.37-.11.74-.2,1.12s-.18.77-.3,1.17l-1.41,5Z" fill="#333"/><path d="M1034.11,376l7.34-14.08H1047l1.84,14.08h-5l-.1-1.88h-3.38l-.77,1.88Zm7.65-5.2h1.8l-.06-1.51c0-.09,0-.2,0-.36,0-.63,0-1.13,0-1.52s0-.45,0-.59,0-.27,0-.39c-.11.38-.23.74-.35,1.09s-.24.67-.35.94Z" fill="#333"/><path d="M1049.66,376l2.6-14.08h5.17L1054.84,376Z" fill="#333"/><path d="M983.42,382.65h-2.75a2,2,0,0,1-.77,1,6.77,6.77,0,0,1-2.06.82l-.2-.32a7.78,7.78,0,0,0,1.76-.61,1.78,1.78,0,0,0,.9-.92h-2.44v-.32h2.52a2.19,2.19,0,0,0,.07-.53l.36,0a3.57,3.57,0,0,1-.06.51h2.67Zm.18-1.06h-6v-.35h2.79v-.63h-2.21v-.33h2.21v-.63H978v-.33h5.33v.33H980.8v.63H983v.33H980.8v.63h2.8ZM980,379l-.32.21a3.44,3.44,0,0,0-.71-.55l.33-.21A2.67,2.67,0,0,1,980,379Zm3.59,5.23-.22.3a12.61,12.61,0,0,0-2.47-1.2l.19-.3A13.24,13.24,0,0,1,983.55,384.24Zm-1.34-5.57a3.65,3.65,0,0,1-.74.55l-.33-.21a3.24,3.24,0,0,0,.75-.54Z" fill="#333"/><path d="M991.79,384.05l-.08.36H989a2.71,2.71,0,0,1-2.18-.82,4.07,4.07,0,0,1-.73.93l-.3-.24a3.68,3.68,0,0,0,1.23-2.16h-1v-.35a12.72,12.72,0,0,0,1-1.38h-1.18v-.34h1.58v.34a10.72,10.72,0,0,1-1,1.39h.94v.34a4.47,4.47,0,0,1-.39,1.17,2,2,0,0,0,.74.56,3.18,3.18,0,0,0,1.26.2Zm-4.55-4.5-.26.25a6.57,6.57,0,0,0-1-.95l.25-.25A7.75,7.75,0,0,1,987.24,379.55Zm2.27-.35h-.44v.29h-.35v-.29h-1.16v-.32h1.16v-.35h.35v.35h.44Zm2,4.1a.53.53,0,0,1-.06.24.39.39,0,0,1-.19.17,2.78,2.78,0,0,1-.76.05l-.11-.35H991c.11,0,.17-.05.17-.15v-1.18h-1.33v.59a4.5,4.5,0,0,0,.5-.07.59.59,0,0,0-.13-.19l.29-.15a4.12,4.12,0,0,1,.44.76l-.3.16a2.1,2.1,0,0,0-.12-.28c-.64.1-1.28.19-1.94.26l-.13-.32c.34,0,.68-.06,1-.11v-.65h-1.28v1.63h-.35v-1.63h-.21v-.32h.21v-.24h.35v.24h1.28v-.45H988v-1.67h3.28v1.67h-1.46v.45h1.67Zm-2-3V380H988.4v.38Zm0,.68v-.37H988.4V381Zm2.28-1.82h-1.13v.29h-.35v-.29h-.49v-.32h.49v-.35h.35v.35h1.13Zm-.81,1.14V380h-1.12v.38Zm0,.68v-.37h-1.12V381Z" fill="#333"/><path d="M1000,383.55h-2.78v.94h-.35v-.94h-2.79v-.36h2.79v-.59h-2.2v-2.48h2.2v-.6h-2.65v-.34h2.65v-.67h.35v.67h2.64v.34h-2.64v.6h2.18v2.48h-2.18v.59H1000Zm-3.13-2.38v-.7H995v.7Zm0,1.08v-.75H995v.75Zm2.18-1.08v-.7h-1.83v.7Zm0,.33h-1.83v.75H999Z" fill="#333"/><path d="M1007.88,384a.41.41,0,0,1-.2.39,2.29,2.29,0,0,1-.89.11h-.31l-.11-.37.5,0a2.53,2.53,0,0,0,.57,0,.14.14,0,0,0,.08-.13v-1.65h-1.94v2h-.37v-2h-1.94a4.57,4.57,0,0,1-.71,2.15l-.32-.22a4.29,4.29,0,0,0,.69-2.46v-3.14h5Zm-2.67-3.74V379h-1.91v1.24Zm0,1.71v-1.33h-1.91V382Zm2.31-1.71V379h-1.94v1.24Zm0,1.71v-1.33h-1.94V382Z" fill="#333"/><path d="M1016.26,381h-.34v-1.17h-2.4v1.36h-.34v-1.36H1011V381h-.36v-1.49h2.59V379h-2.34v-.32h5.2V379h-2.52v.5h2.74Zm.21,2.69a1,1,0,0,1-.21.59.83.83,0,0,1-.59.2c-.28,0-.59,0-.94,0l-.86,0a.89.89,0,0,1-.54-.15.6.6,0,0,1-.14-.43v-.5H1011v-2h4.73v2h-2.19v.53a.15.15,0,0,0,.06.13,1.37,1.37,0,0,0,.44.07l.83,0a5.33,5.33,0,0,0,.94,0,.29.29,0,0,0,.2-.2,1.46,1.46,0,0,0,.09-.42ZM1012.9,381a8.34,8.34,0,0,1-1.54.25l-.11-.31a10.53,10.53,0,0,0,1.54-.21Zm0-.7-.11.29a10.37,10.37,0,0,0-1.5-.21l.15-.3A9.67,9.67,0,0,1,1012.9,380.26Zm.29,2v-.5h-1.83v.5Zm0,.81v-.51h-1.83v.51Zm2.18-.81v-.5h-1.82v.5Zm0,.81v-.51h-1.82v.51Zm.21-2.1-.16.29a9,9,0,0,0-1.61-.27l.15-.27A9,9,0,0,1,1015.58,381Zm-.05-.62q-.84.15-1.56.21l-.1-.29a12,12,0,0,0,1.54-.21Z" fill="#333"/><path d="M1024.59,381.68h-2.76V384a.53.53,0,0,1-.15.39.58.58,0,0,1-.41.15h-.89l-.14-.37,1.07,0a.14.14,0,0,0,.11-.06.21.21,0,0,0,.05-.13v-2.27h-2.81v-.36h2.81v-.89a10.32,10.32,0,0,0,1.86-1.38h-3.92v-.37h4.43v.37a13,13,0,0,1-2,1.57v.7h2.76Z" fill="#333"/><path d="M1032.8,379.65h-3.38a8.57,8.57,0,0,1-.51.77h3.36V384a.42.42,0,0,1-.19.41,2,2,0,0,1-.9.12l-.53,0-.17-.36c.21,0,.43,0,.67,0a2.48,2.48,0,0,0,.66-.05.18.18,0,0,0,.11-.18V383h-3.37a2.93,2.93,0,0,1-.75,1.5l-.34-.2a3.46,3.46,0,0,0,.84-2.65c0-.14,0-.31,0-.51a8.73,8.73,0,0,1-1.23,1l-.27-.27a7.07,7.07,0,0,0,2.2-2.3h-2.14v-.35h2.35c.13-.24.26-.5.4-.81l.36.11c-.13.29-.24.52-.34.7h3.18Zm-.88,3.06v-.82h-3.28c0,.35,0,.62,0,.82Zm0-1.17v-.78h-3.25v.78Z" fill="#333"/><path d="M1036.63,380.6a2.88,2.88,0,0,1,.6,1.61.89.89,0,0,1-.24.66,1.37,1.37,0,0,1-1,.2l-.14-.36h.34a.87.87,0,0,0,.51-.11.63.63,0,0,0,.13-.45,2.35,2.35,0,0,0-.62-1.48q.21-.57.54-1.65h-1.07v5.45h-.35v-5.79h1.76V379A13.75,13.75,0,0,1,1036.63,380.6Zm4,.79h-2.48V384a8,8,0,0,0,1.11-.41l0,.38a10.62,10.62,0,0,1-1.41.48l-.17-.35a.26.26,0,0,0,.08-.19v-5.28h2.84Zm-.38-1.56V379h-2.1v.8Zm0,1.21v-.87h-2.1V381Zm.91,3.18-.25.31A4.27,4.27,0,0,1,1039,382l.33-.14a4.39,4.39,0,0,0,.34.86,5.89,5.89,0,0,0,1-.9l.27.23a7.06,7.06,0,0,1-1.15,1A3.44,3.44,0,0,0,1041.14,384.22Z" fill="#333"/><path d="M1045.63,378.64a5.84,5.84,0,0,1-2.18,3l-.27-.28a5.3,5.3,0,0,0,2.09-2.84Zm3.1,5.73-.32.19a5,5,0,0,0-.43-.87,24.93,24.93,0,0,1-3.84.67L1044,384a13.48,13.48,0,0,0,2-3.52l.35.16a16,16,0,0,1-1.81,3.3,19,19,0,0,0,3.23-.58,12.71,12.71,0,0,0-.83-1.27l.32-.18A12.93,12.93,0,0,1,1048.73,384.37Zm.51-3.06-.23.3a5.38,5.38,0,0,1-2-2.64h-.46v-.37h.74A4.84,4.84,0,0,0,1049.24,381.31Z" fill="#333"/><path d="M1057.08,384a.47.47,0,0,1-.14.39,1.61,1.61,0,0,1-.81.12l-.73,0-.12-.38c.39,0,.69,0,.92,0a1.13,1.13,0,0,0,.43-.05.19.19,0,0,0,.09-.19V379h-5.26v-.35h5.62Zm-1.08-3.73h-4.33v-.34H1056Zm-.47,3h-3.43v-2.07h3.43Zm-.37-.35v-1.37h-2.68v1.37Z" fill="#333"/><polygon points="968.99 372.55 966.88 370.25 966.88 362.83 966.88 362.83 966.88 358.49 966.88 358.49 966.88 358.49 965.78 359.12 954.65 365.53 942.42 358.49 942.42 358.49 942.42 362.83 942.42 370.25 940.3 372.55 940.3 376.76 946.03 380.06 946.03 364.91 954.65 369.87 954.65 369.87 954.65 369.87 954.65 369.87 954.65 369.87 963.26 364.91 963.26 380.05 963.26 380.06 963.26 380.05 963.26 380.06 964.68 379.24 968.99 376.76 968.99 372.55" fill="#333"/><polygon points="947.34 376.75 947.34 381.09 954.65 385.29 961.96 381.09 961.96 376.75 954.65 380.95 947.34 376.75" fill="#333"/></g></svg>